<svg width="18" height="18" viewBox="0 0 18 18" fill="none" xmlns="http://www.w3.org/2000/svg">
<path d="M8.91406 13.6406C9.04948 13.6406 9.17708 13.6146 9.29688 13.5625C9.41667 13.5104 9.52604 13.4323 9.625 13.3281L15.5703 7.24219C15.7474 7.0651 15.8359 6.85417 15.8359 6.60938C15.8359 6.4375 15.7943 6.28125 15.7109 6.14062C15.6328 6 15.526 5.89062 15.3906 5.8125C15.2552 5.72917 15.1016 5.6875 14.9297 5.6875C14.6797 5.6875 14.4609 5.78125 14.2734 5.96875L8.53906 11.8516H9.29688L3.55469 5.96875C3.36719 5.78125 3.14844 5.6875 2.89844 5.6875C2.72656 5.6875 2.57292 5.72917 2.4375 5.8125C2.30208 5.89062 2.19271 6 2.10938 6.14062C2.03125 6.28125 1.99219 6.4375 1.99219 6.60938C1.99219 6.73438 2.01302 6.85156 2.05469 6.96094C2.10156 7.0651 2.16927 7.15885 2.25781 7.24219L8.20312 13.3281C8.41667 13.5365 8.65365 13.6406 8.91406 13.6406Z" fill="black"/>
</svg>
